<svg width="82" height="43" viewBox="0 0 82 43" fill="none" xmlns="http://www.w3.org/2000/svg">
<path d="M56.2941 11.4367L64.5294 20.6132L56.2941 29.7896" stroke="black" stroke-linecap="round" stroke-linejoin="round"/>
<line x1="64" y1="20.6132" x2="-4.37114e-08" y2="20.6132" stroke="black"/>
<path d="M39.4812 16.265C40.6705 11.4108 43.6023 7.14874 47.7321 4.2701C51.8619 1.39146 56.9092 0.0917954 61.937 0.612397C66.9647 1.133 71.6313 3.4385 75.0705 7.10087C78.5096 10.7632 80.4876 15.5337 80.6372 20.5265C80.7868 25.5193 79.0978 30.3954 75.8839 34.2494C72.67 38.1034 68.1495 40.6735 63.1615 41.4825C58.1736 42.2916 53.0572 41.2847 48.7621 38.6487C44.4671 36.0127 41.2852 31.9267 39.8073 27.1493" stroke="black"/>
</svg>
