<svg width="65" height="65" viewBox="0 0 65 65" fill="none" xmlns="http://www.w3.org/2000/svg">
<g opacity="0.2">
<rect x="0.5" y="0.5" width="64" height="64" rx="16" stroke="#1565D8"/>
</g>
<path fill-rule="evenodd" clip-rule="evenodd" d="M24.0056 22.1L25.3964 19.3193C25.5233 19.0848 25.7291 18.7516 25.991 18.4117C26.3286 17.9735 26.6702 17.6444 27.0541 17.4572C27.2598 17.3569 27.4752 17.3 27.7 17.3H37.3C37.5248 17.3 37.7402 17.3569 37.9459 17.4572C38.3298 17.6444 38.6714 17.9735 39.009 18.4117C39.2709 18.7516 39.4767 19.0848 39.6155 19.3422L40.9944 22.1H43.7C46.7928 22.1 49.3 24.6072 49.3 27.7V42.1C49.3 45.1928 46.7928 47.7 43.7 47.7H21.3C18.2072 47.7 15.7 45.1928 15.7 42.1V27.7C15.7 24.6072 18.2072 22.1 21.3 22.1H24.0056ZM22.1 30.1C22.9837 30.1 23.7 29.3836 23.7 28.5C23.7 27.6163 22.9837 26.9 22.1 26.9C21.2163 26.9 20.5 27.6163 20.5 28.5C20.5 29.3836 21.2163 30.1 22.1 30.1ZM32.5 41.3C36.4764 41.3 39.7 38.0764 39.7 34.1C39.7 30.1235 36.4764 26.9 32.5 26.9C28.5235 26.9 25.3 30.1235 25.3 34.1C25.3 38.0764 28.5235 41.3 32.5 41.3Z" fill="#1565D8"/>
<path opacity="0.3" fill-rule="evenodd" clip-rule="evenodd" d="M32.5 39.7C35.5928 39.7 38.1 37.1928 38.1 34.1C38.1 31.0072 35.5928 28.5 32.5 28.5C29.4072 28.5 26.9 31.0072 26.9 34.1C26.9 37.1928 29.4072 39.7 32.5 39.7Z" fill="#1565D8"/>
</svg>
