<svg width="65" height="65" viewBox="0 0 65 65" fill="none" xmlns="http://www.w3.org/2000/svg">
<g opacity="0.2">
<rect x="0.5" y="0.5" width="64" height="64" rx="16" stroke="#1565D8"/>
</g>
<path fill-rule="evenodd" clip-rule="evenodd" d="M32.5 49.3C23.2216 49.3 15.7 41.7784 15.7 32.5C15.7 23.2216 23.2216 15.7 32.5 15.7C41.7784 15.7 49.3 23.2216 49.3 32.5C49.3 41.7784 41.7784 49.3 32.5 49.3ZM26.1 23.7C27.4255 23.7 28.5 22.6255 28.5 21.3C28.5 19.9745 27.4255 18.9 26.1 18.9C24.7745 18.9 23.7 19.9745 23.7 21.3C23.7 22.6255 24.7745 23.7 26.1 23.7ZM26.1 34.9C28.3092 34.9 30.1 33.1092 30.1 30.9C30.1 28.6909 28.3092 26.9 26.1 26.9C23.8909 26.9 22.1 28.6909 22.1 30.9C22.1 33.1092 23.8909 34.9 26.1 34.9ZM38.1 28.5C39.8673 28.5 41.3 27.0673 41.3 25.3C41.3 23.5327 39.8673 22.1 38.1 22.1C36.3327 22.1 34.9 23.5327 34.9 25.3C34.9 27.0673 36.3327 28.5 38.1 28.5ZM24.5 42.9C25.8255 42.9 26.9 41.8255 26.9 40.5C26.9 39.1745 25.8255 38.1 24.5 38.1C23.1745 38.1 22.1 39.1745 22.1 40.5C22.1 41.8255 23.1745 42.9 24.5 42.9ZM34.9 42.9C36.6673 42.9 38.1 41.4673 38.1 39.7C38.1 37.9327 36.6673 36.5 34.9 36.5C33.1327 36.5 31.7 37.9327 31.7 39.7C31.7 41.4673 33.1327 42.9 34.9 42.9ZM42.9 36.5C43.7837 36.5 44.5 35.7837 44.5 34.9C44.5 34.0164 43.7837 33.3 42.9 33.3C42.0164 33.3 41.3 34.0164 41.3 34.9C41.3 35.7837 42.0164 36.5 42.9 36.5Z" fill="#1565D8"/>
<path opacity="0.3" fill-rule="evenodd" clip-rule="evenodd" d="M26.1 33.3C24.7745 33.3 23.7 32.2255 23.7 30.9C23.7 29.5745 24.7745 28.5 26.1 28.5C27.4255 28.5 28.5 29.5745 28.5 30.9C28.5 32.2255 27.4255 33.3 26.1 33.3ZM38.1 26.9C37.2164 26.9 36.5 26.1837 36.5 25.3C36.5 24.4164 37.2164 23.7 38.1 23.7C38.9837 23.7 39.7 24.4164 39.7 25.3C39.7 26.1837 38.9837 26.9 38.1 26.9ZM34.9 41.3C34.0164 41.3 33.3 40.5837 33.3 39.7C33.3 38.8164 34.0164 38.1 34.9 38.1C35.7837 38.1 36.5 38.8164 36.5 39.7C36.5 40.5837 35.7837 41.3 34.9 41.3Z" fill="#1565D8"/>
</svg>
