<svg width="65" height="65" viewBox="0 0 65 65" fill="none" xmlns="http://www.w3.org/2000/svg">
<g id="Icon">
<g id="Border" opacity="0.2">
<rect id="Shape" x="0.5" y="0.5" width="64" height="64" rx="16" stroke="#1565D8"/>
</g>
<g id="Icon_Affordable">
<path id="path" fill-rule="evenodd" clip-rule="evenodd" d="M24.1262 49.3007H22.9C19.8072 49.3007 17.3 46.7935 17.3 43.7007V16.5007C17.3 15.9435 17.8554 15.557 18.3779 15.7506L24.6118 18.0603L30.613 15.754C30.7949 15.6841 30.9961 15.683 31.1788 15.7509L37.3385 18.0415L43.4181 15.7521C43.9412 15.5551 44.5 15.9417 44.5 16.5007V41.3007H23.2835L24.7928 44.2304C25.1388 44.902 25.3 45.5284 25.3 46.134C25.3 46.7267 25.1457 47.3296 24.8154 47.9682L24.1262 49.3007ZM31.7 25.3007V24.5007C31.7 24.0589 31.3418 23.7007 30.9 23.7007C30.4582 23.7007 30.1 24.0589 30.1 24.5007V25.3007H29.3223C27.9968 25.3007 26.9223 26.3753 26.9223 27.7007V28.502C26.9223 29.8274 27.9968 30.9019 29.3223 30.902H32.5C32.9418 30.902 33.3 31.2601 33.3 31.702V32.5007C33.3 32.9426 32.9418 33.3007 32.5 33.3007H28.5196C28.4867 32.9005 28.1576 32.5802 27.7466 32.5677C27.305 32.5543 26.9361 32.9014 26.9227 33.343L26.9004 34.0764C26.8866 34.5276 27.2486 34.9007 27.7 34.9007H30.1V35.7007C30.1 36.1426 30.4582 36.5007 30.9 36.5007C31.3418 36.5007 31.7 36.1426 31.7 35.7007V34.9007H32.5C33.8255 34.9007 34.9 33.8262 34.9 32.5007V31.702C34.9 30.3765 33.8255 29.302 32.5 29.302H29.3223C28.8805 29.302 28.5223 28.9438 28.5223 28.502V27.7007C28.5223 27.2589 28.8805 26.9007 29.3223 26.9007H33.3238C33.4106 27.2487 33.7252 27.5064 34.1 27.5064C34.5418 27.5064 34.9 27.1482 34.9 26.7064V26.1007C34.9 25.6589 34.5418 25.3007 34.1 25.3007H31.7Z" fill="#1565D8"/>
<path id="path_2" opacity="0.3" fill-rule="evenodd" clip-rule="evenodd" d="M46.21 42.9C48.3836 42.9411 50.1329 44.7159 50.1329 46.8993C50.1329 49.1084 48.3421 50.8993 46.1329 50.8993H25.3158C26.6233 49.6219 27.319 48.3076 27.3165 46.9278C27.3139 45.5475 26.6128 44.2137 25.3 42.9H46.21Z" fill="#1565D8"/>
</g>
</g>
</svg>
