<svg width="65" height="65" viewBox="0 0 65 65" fill="none" xmlns="http://www.w3.org/2000/svg">
<g id="Icon">
<g id="Border" opacity="0.2">
<rect id="Shape" x="0.5" y="0.5" width="64" height="64" rx="16" stroke="#1565D8"/>
</g>
<g id="Icon_Professional">
<path id="Path" fill-rule="evenodd" clip-rule="evenodd" d="M25.3 24.5C25.3 20.5235 28.5236 17.3 32.5 17.3C36.4765 17.3 39.7 20.5235 39.7 24.5C39.7 27.2695 38.1217 29.7445 35.7119 30.9457L35.8763 32.2604C40.0293 33.6833 42.9 37.6095 42.9 42.1V43.7C42.9 44.1418 42.5418 44.5 42.1 44.5H22.9C22.4582 44.5 22.1 44.1418 22.1 43.7V42.1C22.1 37.6095 24.9707 33.6833 29.1237 32.2604L29.2881 30.9457C26.8784 29.7445 25.3 27.2695 25.3 24.5Z" fill="#1565D8"/>
</g>
</g>
</svg>
