<svg width="65" height="65" viewBox="0 0 65 65" fill="none" xmlns="http://www.w3.org/2000/svg">
<g id="Icon">
<g id="Border" opacity="0.2">
<rect id="Shape" x="0.5" y="0.5" width="64" height="64" rx="16" stroke="#1565D8"/>
</g>
<g id="Icon_Fast file">
<path id="Path" fill-rule="evenodd" clip-rule="evenodd" d="M47.4447 18.1953C48.5309 24.0255 46.0964 30.209 41.2064 34.0774L28.2497 44.3275C27.9313 44.5793 27.4747 44.5528 27.1876 44.2657L20.7343 37.8124C20.4473 37.5253 20.4207 37.0688 20.6726 36.7504L30.9226 23.7936C34.7911 18.9036 40.9746 16.4692 46.8047 17.5554C47.1298 17.616 47.3841 17.8703 47.4447 18.1953ZM36.0716 23.2716C34.5095 24.8337 34.5095 27.3663 36.0716 28.9284C37.6337 30.4905 40.1663 30.4905 41.7284 28.9284C43.2905 27.3663 43.2905 24.8337 41.7284 23.2716C40.1663 21.7095 37.6337 21.7095 36.0716 23.2716ZM40.5971 27.797C39.6598 28.7343 38.1402 28.7343 37.2029 27.797C36.2657 26.8598 36.2657 25.3402 37.2029 24.4029C38.1402 23.4657 39.6598 23.4657 40.5971 24.4029C41.5343 25.3402 41.5343 26.8598 40.5971 27.797Z" fill="#1565D8"/>
<path id="Path_2" opacity="0.3" fill-rule="evenodd" clip-rule="evenodd" d="M25.3 44.7508L24.5894 45.4615C23.738 46.3129 22.3576 46.3129 21.5062 45.4615L19.5385 43.4938C18.6871 42.6424 18.6871 41.262 19.5385 40.4106L20.2492 39.7L25.3 44.7508ZM21.0961 33.3L17.6674 31.0206C17.2028 30.7117 17.1736 30.0414 17.6097 29.6936L23.7999 24.7756C25.1337 23.7159 26.909 23.4228 28.4982 23.9695L21.0961 33.3ZM41.0072 36.5C41.5897 38.1207 41.2937 39.9427 40.2032 41.2975L35.2995 47.3902C34.9523 47.8265 34.2833 47.7973 33.975 47.3324L31.7 43.9018L41.0072 36.5Z" fill="#1565D8"/>
</g>
</g>
</svg>
