<svg width="65" height="65" viewBox="0 0 65 65" fill="none" xmlns="http://www.w3.org/2000/svg">
<g opacity="0.2">
<rect x="0.5" y="0.5" width="64" height="64" rx="16" stroke="#1565D8"/>
</g>
<path fill-rule="evenodd" clip-rule="evenodd" d="M26.0336 26.8137C27.7707 24.3236 28.8549 21.4662 29.2899 18.2314C29.3313 17.9232 29.5476 17.667 29.8444 17.5744C32.8357 16.6405 34.5364 18.1245 34.5083 21.5083C34.5029 22.1651 34.4728 22.7489 34.4089 23.6418C34.266 25.6363 34.2773 26.1806 34.4987 26.5468C34.7115 26.8989 35.4023 27.0191 37.036 26.7062C37.5516 26.6075 38.0687 26.4955 38.6415 26.3611C38.8944 26.3018 40.7157 25.8535 41.1812 25.7521C42.0693 25.5586 42.7065 25.4768 43.2668 25.5114C44.7847 25.6054 45.5902 26.5913 45.7294 28.4801C45.9745 31.8065 45.2171 38.488 44.4615 40.9491C43.6894 43.464 42.3429 44.4133 39.1107 44.4706C37.0327 44.5075 33.8365 44.5075 29.5074 44.4705C28.4023 44.4446 27.4008 44.2287 26.5099 43.8251C26.76 43.3028 26.9 42.7177 26.9 42.1V29.3C26.9 28.3603 26.576 27.4964 26.0336 26.8137Z" fill="#1565D8"/>
<path opacity="0.3" fill-rule="evenodd" clip-rule="evenodd" d="M21.3 26.9C19.9745 26.9 18.9 27.9745 18.9 29.3V42.1C18.9 43.4255 19.9745 44.5 21.3 44.5H22.9C24.2255 44.5 25.3 43.4255 25.3 42.1V29.3C25.3 27.9745 24.2255 26.9 22.9 26.9H21.3Z" fill="#1565D8"/>
</svg>
