<svg width="144" height="43" viewBox="0 0 144 43" fill="none" xmlns="http://www.w3.org/2000/svg">
<rect width="3.67464" height="3.67477" transform="matrix(0.713395 0.700762 -0.699504 0.714629 19.2437 17.2473)" fill="#260F0F"/>
<rect width="16.593" height="16.5936" transform="matrix(0.713395 0.700762 -0.699504 0.714628 19.6108 8.05244)" stroke="#260F0F" stroke-width="3"/>
<path d="M35.1464 24.7769L19.5528 40.7077L3.65005 25.0866" stroke="#260F0F" stroke-width="3"/>
<rect width="26.4997" height="26.5007" transform="matrix(0.713395 0.700762 -0.699504 0.714628 19.2437 0.707703)" stroke="#260F0F"/>
<path d="M63.086 15.5113L59.462 28.9033H54.926L52.814 20.2153L50.63 28.9033H46.118L42.47 15.5113H46.574L48.47 25.0873L50.726 15.5113H55.07L57.35 25.0393L59.222 15.5113H63.086ZM77.2751 21.9913C77.2751 22.3753 77.2511 22.7753 77.2031 23.1913H67.9151C67.9791 24.0233 68.2431 24.6633 68.7071 25.1113C69.1871 25.5433 69.7711 25.7593 70.4591 25.7593C71.4831 25.7593 72.1951 25.3273 72.5951 24.4633H76.9631C76.7391 25.3433 76.3311 26.1353 75.7391 26.8393C75.1631 27.5433 74.4351 28.0953 73.5551 28.4953C72.6751 28.8953 71.6911 29.0953 70.6031 29.0953C69.2911 29.0953 68.1231 28.8153 67.0991 28.2553C66.0751 27.6953 65.2751 26.8953 64.6991 25.8553C64.1231 24.8153 63.8351 23.5993 63.8351 22.2073C63.8351 20.8153 64.1151 19.5993 64.6751 18.5593C65.2511 17.5193 66.0511 16.7193 67.0751 16.1593C68.0991 15.5993 69.2751 15.3193 70.6031 15.3193C71.8991 15.3193 73.0511 15.5913 74.0591 16.1353C75.0671 16.6793 75.8511 17.4553 76.4111 18.4633C76.9871 19.4713 77.2751 20.6473 77.2751 21.9913ZM73.0751 20.9113C73.0751 20.2073 72.8351 19.6473 72.3551 19.2313C71.8751 18.8153 71.2751 18.6073 70.5551 18.6073C69.8671 18.6073 69.2831 18.8073 68.8031 19.2073C68.3391 19.6073 68.0511 20.1753 67.9391 20.9113H73.0751ZM83.5441 17.4073C83.9281 16.7833 84.4801 16.2793 85.2001 15.8953C85.9201 15.5113 86.7441 15.3193 87.6721 15.3193C88.7761 15.3193 89.7761 15.5993 90.6721 16.1593C91.5681 16.7193 92.2721 17.5193 92.7841 18.5593C93.3121 19.5993 93.5761 20.8073 93.5761 22.1833C93.5761 23.5593 93.3121 24.7753 92.7841 25.8313C92.2721 26.8713 91.5681 27.6793 90.6721 28.2553C89.7761 28.8153 88.7761 29.0953 87.6721 29.0953C86.7281 29.0953 85.9041 28.9113 85.2001 28.5433C84.4961 28.1593 83.9441 27.6553 83.5441 27.0313V28.9033H79.4401V11.1433H83.5441V17.4073ZM89.4001 22.1833C89.4001 21.1593 89.1121 20.3593 88.5361 19.7833C87.9761 19.1913 87.2801 18.8953 86.4481 18.8953C85.6321 18.8953 84.9361 19.1913 84.3601 19.7833C83.8001 20.3753 83.5201 21.1833 83.5201 22.2073C83.5201 23.2313 83.8001 24.0393 84.3601 24.6313C84.9361 25.2233 85.6321 25.5193 86.4481 25.5193C87.2641 25.5193 87.9601 25.2233 88.5361 24.6313C89.1121 24.0233 89.4001 23.2073 89.4001 22.1833ZM103.193 25.4233V28.9033H101.105C99.6172 28.9033 98.4572 28.5433 97.6252 27.8233C96.7932 27.0873 96.3772 25.8953 96.3772 24.2473V18.9193H94.7452V15.5113H96.3772V12.2473H100.481V15.5113H103.169V18.9193H100.481V24.2953C100.481 24.6953 100.577 24.9833 100.769 25.1593C100.961 25.3353 101.281 25.4233 101.729 25.4233H103.193ZM118.103 21.9913C118.103 22.3753 118.079 22.7753 118.031 23.1913H108.743C108.807 24.0233 109.071 24.6633 109.535 25.1113C110.015 25.5433 110.599 25.7593 111.287 25.7593C112.311 25.7593 113.023 25.3273 113.423 24.4633H117.791C117.567 25.3433 117.159 26.1353 116.567 26.8393C115.991 27.5433 115.263 28.0953 114.383 28.4953C113.503 28.8953 112.519 29.0953 111.431 29.0953C110.119 29.0953 108.951 28.8153 107.927 28.2553C106.903 27.6953 106.103 26.8953 105.527 25.8553C104.951 24.8153 104.663 23.5993 104.663 22.2073C104.663 20.8153 104.943 19.5993 105.503 18.5593C106.079 17.5193 106.879 16.7193 107.903 16.1593C108.927 15.5993 110.103 15.3193 111.431 15.3193C112.727 15.3193 113.879 15.5913 114.887 16.1353C115.895 16.6793 116.679 17.4553 117.239 18.4633C117.815 19.4713 118.103 20.6473 118.103 21.9913ZM113.903 20.9113C113.903 20.2073 113.663 19.6473 113.183 19.2313C112.703 18.8153 112.103 18.6073 111.383 18.6073C110.695 18.6073 110.111 18.8073 109.631 19.2073C109.167 19.6073 108.879 20.1753 108.767 20.9113H113.903ZM137.356 15.3673C139.02 15.3673 140.34 15.8713 141.316 16.8793C142.308 17.8873 142.804 19.2873 142.804 21.0793V28.9033H138.724V21.6313C138.724 20.7673 138.492 20.1033 138.028 19.6393C137.58 19.1593 136.956 18.9193 136.156 18.9193C135.356 18.9193 134.724 19.1593 134.26 19.6393C133.812 20.1033 133.588 20.7673 133.588 21.6313V28.9033H129.508V21.6313C129.508 20.7673 129.276 20.1033 128.812 19.6393C128.364 19.1593 127.74 18.9193 126.94 18.9193C126.14 18.9193 125.508 19.1593 125.044 19.6393C124.596 20.1033 124.372 20.7673 124.372 21.6313V28.9033H120.268V15.5113H124.372V17.1913C124.788 16.6313 125.332 16.1913 126.004 15.8713C126.676 15.5353 127.436 15.3673 128.284 15.3673C129.292 15.3673 130.188 15.5833 130.972 16.0153C131.772 16.4473 132.396 17.0633 132.844 17.8633C133.308 17.1273 133.94 16.5273 134.74 16.0633C135.54 15.5993 136.412 15.3673 137.356 15.3673Z" fill="#260F0F"/>
</svg>
